<svg width="31" height="30" viewBox="0 0 31 30" fill="none" xmlns="http://www.w3.org/2000/svg">
<rect width="29.6842" height="29.6842" transform="translate(0.816406 0.157959)" fill="#D0003F"/>
<rect width="21.6842" height="21.6842" transform="matrix(0 -1 1 0 4.81641 25.8423)" fill="#D0003F"/>
<path d="M20.2297 14.7973C20.2311 15.1009 20.1121 15.3925 19.8986 15.6083L13.0437 22.4627C12.8286 22.6778 12.5369 22.7986 12.2328 22.7986C11.9286 22.7986 11.6369 22.6778 11.4218 22.4627C11.2068 22.2476 11.0859 21.9559 11.0859 21.6517C11.0859 21.3476 11.2068 21.0559 11.4218 20.8408L17.4762 14.7973L11.4333 8.75439C11.2461 8.53584 11.1482 8.25467 11.1593 7.9671C11.1703 7.67952 11.2896 7.40672 11.493 7.20322C11.6965 6.99973 11.9693 6.88052 12.2569 6.86944C12.5445 6.85837 12.8257 6.95623 13.0442 7.14346L19.8991 13.9979C20.1098 14.2108 20.2281 14.4978 20.2297 14.7973Z" fill="#FAFAFA"/>
</svg>
